<svg width="64" height="64" viewBox="0 0 64 64" fill="none" xmlns="http://www.w3.org/2000/svg">
<path d="M62.288 28.1706C57.8266 23.888 45.408 23.9012 42 23.9786L26.6774 2.76262C25.4294 1.032 23.408 0 21.2746 0H20C19.5974 0 19.2186 0.181375 18.9654 0.493375C18.712 0.805375 18.6134 1.216 18.696 1.608L23.7254 25.488L12.4987 26.6106L4.94413 19.056C4.6935 18.808 4.35475 18.6666 4.00012 18.6666H1.33337C0.896 18.6666 0.488 18.8826 0.237375 19.2426C-0.010625 19.6 -0.06925 20.0586 0.085375 20.4692L3.6 29.84L0.912 30.736C0.368 30.9174 0 31.4266 0 32C0 32.5734 0.368 33.0826 0.912 33.264L3.6 34.16L0.085375 43.5334C-0.06925 43.9414 -0.010625 44.4 0.237375 44.76C0.488 45.1174 0.896 45.3334 1.33337 45.3334H4C4.35462 45.3334 4.69337 45.192 4.94137 44.944L12.496 37.3894L23.7226 38.512L18.696 62.392C18.6134 62.784 18.712 63.1946 18.9654 63.5066C19.2188 63.8186 19.5974 64 20 64H21.2746C23.408 64 25.4266 62.968 26.6772 61.2374L42 40.0214C45.4 40.104 57.824 40.112 62.288 35.8294C63.424 34.7386 64 33.4506 64 32C64 30.5494 63.424 29.2614 62.288 28.1706ZM60.4454 33.8986C56.9894 37.2186 45.528 37.512 41.3894 37.3306C40.968 37.3013 40.5148 37.52 40.2534 37.8826L24.5174 59.672C23.84 60.608 22.7868 61.2054 21.648 61.312L26.64 37.6054C26.7174 37.2347 26.6346 36.8507 26.4106 36.544C26.1866 36.24 25.8426 36.0426 25.4666 36.0054L12.1334 34.672C12.088 34.6694 12.0454 34.6666 12 34.6666C11.648 34.6666 11.3094 34.8052 11.0586 35.056L3.448 42.6666H3.25863L6.58125 33.8026C6.70662 33.464 6.69325 33.088 6.53587 32.76C6.3785 32.432 6.0985 32.184 5.7545 32.0694L5.54938 32L5.75737 31.9306C6.10137 31.816 6.38138 31.5653 6.53875 31.24C6.69613 30.9147 6.70937 30.536 6.58413 30.1974L3.25875 21.3334H3.44812L11.0588 28.944C11.3414 29.2266 11.7361 29.3546 12.1334 29.328L25.4667 27.9946C25.8427 27.9546 26.1867 27.76 26.4107 27.4533C26.6348 27.1493 26.7174 26.7626 26.6401 26.3919L21.648 2.68537C22.7866 2.792 23.84 3.38938 24.5146 4.32538L40.2533 26.1147C40.5146 26.4801 40.9333 26.7121 41.3893 26.6667C45.5039 26.4934 56.9786 26.7734 60.4426 30.0961C61.0506 30.6775 61.3332 31.2828 61.3332 32.0001C61.3332 32.7175 61.0506 33.3226 60.4454 33.8986Z" fill="#1E8A49"/>
<path d="M52.3233 28.04C51.6167 27.856 50.894 28.2907 50.7127 29.0027C50.5313 29.712 50.9607 30.4373 51.6701 30.624C51.6861 30.6294 53.3341 31.1014 53.3341 32C53.3341 32.8987 51.6861 33.3707 51.6807 33.3734C50.9661 33.552 50.5313 34.2748 50.7101 34.9894C50.8593 35.5974 51.4033 36 52.0007 36C52.1073 36 52.2167 35.9867 52.3233 35.96C53.6887 35.6187 56.0007 34.4 56.0007 32C56.0007 29.6 53.6887 28.3814 52.3233 28.04Z" fill="#1E8A49"/>
</svg>
