<svg width="64" height="64" viewBox="0 0 64 64" fill="none" xmlns="http://www.w3.org/2000/svg">
<path d="M41.3347 26.6666H29.3347V22.6666C29.3347 21.9306 28.7373 21.3333 28.0013 21.3333C27.2653 21.3333 26.668 21.9306 26.668 22.6666V28C26.668 28.736 27.2653 29.3334 28.0013 29.3334H41.3347C42.0707 29.3334 42.6681 28.736 42.6681 28C42.6681 27.264 42.0707 26.6666 41.3347 26.6666Z" fill="#1E8A49"/>
<path d="M50.668 32C46.2573 32 42.668 35.5894 42.668 40C42.668 44.4106 46.2573 48 50.668 48C55.0786 48 58.668 44.4106 58.668 40C58.668 35.5894 55.0787 32 50.668 32ZM50.668 45.3334C47.7266 45.3334 45.3346 42.9414 45.3346 40C45.3346 37.0586 47.7266 34.6666 50.668 34.6666C53.6093 34.6666 56.0013 37.0586 56.0013 40C56.0013 42.9414 53.6093 45.3334 50.668 45.3334Z" fill="#1E8A49"/>
<path d="M10.668 32C6.25734 32 2.66797 35.5894 2.66797 40C2.66797 44.4106 6.25734 48 10.668 48C15.0786 48 18.668 44.4106 18.668 40C18.668 35.5894 15.0787 32 10.668 32ZM10.668 45.3334C7.72659 45.3334 5.33459 42.9414 5.33459 40C5.33459 37.0586 7.72659 34.6666 10.668 34.6666C13.6093 34.6666 16.0013 37.0586 16.0013 40C16.0013 42.9414 13.6093 45.3334 10.668 45.3334Z" fill="#1E8A49"/>
<path d="M44 40H17.3334C16.5974 40 16 40.5974 16 41.3334C16 42.0694 16.5974 42.6668 17.3334 42.6668H44C44.736 42.6668 45.3334 42.0694 45.3334 41.3334C45.3334 40.5974 44.736 40 44 40Z" fill="#1E8A49"/>
<path d="M49.8186 24.0054C47.8666 22.448 38.952 16 25.3334 16C22.7574 16 16.184 16.264 10.2614 18.6666H4C3.46137 18.6666 2.97337 18.992 2.768 19.4906C2.56 19.9893 2.67462 20.56 3.056 20.944L4.36 22.2454C1.464 24.8426 0 28.1174 0 32C0 36.5786 0.413375 42.6666 4 42.6666C4.736 42.6666 5.33337 42.0692 5.33337 41.3332C5.33337 40.5972 4.736 40 4 40C3.98938 39.9974 2.66663 39.2614 2.66663 32C2.66663 28.456 4.13063 25.6506 7.13863 23.416C7.45062 23.184 7.64525 22.8294 7.67462 22.4426C7.704 22.056 7.56262 21.6772 7.288 21.4026L7.21863 21.3333H10.5253C10.7013 21.3333 10.8772 21.2986 11.0372 21.2292C16.5812 18.9172 22.8826 18.6666 25.3333 18.6666C39.4506 18.6666 48.3706 26.264 48.4586 26.3386C48.7013 26.5492 49.0106 26.6666 49.3332 26.6666C57.9812 26.6666 61.3146 32.2026 61.3332 33.3332V38.6666C61.3332 39.3626 60.3066 39.9653 59.9999 40H57.3332C56.5972 40 55.9999 40.5974 55.9999 41.3334C55.9999 42.0694 56.5972 42.6668 57.3332 42.6668H60C61.6106 42.6668 64 40.9868 64 38.6668V33.3334C64 30.8054 59.6346 24.216 49.8186 24.0054Z" fill="#1E8A49"/>
</svg>
