<svg width="32" height="32" viewBox="0 0 32 32" fill="none" xmlns="http://www.w3.org/2000/svg">
<path d="M20.4 24.1C19.9 23.9 19.7 23.5 19.7 22.9V21.2C19.8 21.1 19.9 20.9 20 20.7C20.6 19.8 21.2 18.8 21.5 17.7C22.3 17.4 22.7 16.6 22.7 15.8V13.8C22.7 13.3 22.5 12.8 22.2 12.4V9.7C22.3 9.4 22.3 7.7 21.1 6.3C20.1 5.1 18.3 4.5 16 4.5C13.7 4.5 11.9 5.1 10.8 6.4C9.6 7.7 9.7 9.4 9.7 9.7V12.4C9.4 12.8 9.2 13.3 9.2 13.8V15.8C9.2 16.4 9.5 17 10 17.4C10.5 19.3 11.5 20.7 11.8 21.1V22.8C11.8 23.3 11.6 23.7 11.1 24L6.4 26.5C6.4 26.5 6.1 26.8 6.4 27.2C6.7 27.6 7.2 27.4 7.2 27.4L11.8 24.9C12.6 24.5 13.1 23.6 13.1 22.7V20.6L13 20.4C13 20.4 11.7 18.8 11.3 16.8L11.2 16.6L11 16.5C10.7 16.3 10.5 16 10.5 15.7V13.7C10.5 13.4 10.6 13.2 10.8 13L11 12.8V9.6C11 9.6 10.8 8.2 11.8 7C12.5 6.1 14 5.6 16 5.6C18 5.6 19.4 6.1 20.2 7.1C21.2 8.2 21 9.7 21 9.7V13L21.2 13.2C21.4 13.4 21.5 13.7 21.5 13.9V15.9C21.5 16.3 21.2 16.7 20.8 16.8L20.5 16.9L20.4 17.2C20.1 18.2 19.6 19.2 18.9 20.1C18.7 20.3 18.6 20.5 18.5 20.6L18.4 20.8V23C18.4 23.9 18.9 24.8 19.7 25.2L24.6 27.6C24.6 27.6 25 27.9 25.4 27.4C25.7 26.9 25.3 26.7 25.3 26.7L20.4 24.1Z" fill="#1E8A49"/>
<path d="M31.4 0H0.6C0.3 0 0 0.3 0 0.6V31.3C0 31.7 0.3 32 0.6 32H26.6C27 32 27.2 31.7 27.2 31.4C27.2 31 26.9 30.8 26.6 30.8H1.3V15.8V14.5V1.3H18.7H20H30.7V21.3V22.6V30.8H26.2C25.8 30.8 25.6 31.1 25.6 31.4C25.6 31.8 25.9 32 26.2 32H31.4C31.8 32 32 31.7 32 31.4V0.6C32 0.3 31.7 0 31.4 0Z" fill="#1E8A49"/>
</svg>
