<svg width="64" height="64" viewBox="0 0 64 64" fill="none" xmlns="http://www.w3.org/2000/svg">
<g clip-path="url(#clip0)">
<path d="M5.33517 22.667C2.39388 22.667 0.00195312 25.0589 0.00195312 28.0002C0.00195312 30.9415 2.39388 33.3334 5.33517 33.3334C8.27646 33.3334 10.6684 30.9415 10.6684 28.0002C10.6684 25.0589 8.27646 22.667 5.33517 22.667ZM5.33517 30.6668C3.86322 30.6668 2.66863 29.4694 2.66863 28.0002C2.66863 26.531 3.86322 25.3337 5.33517 25.3337C6.80713 25.3337 8.00172 26.531 8.00172 28.0002C8.00172 29.4694 6.80713 30.6668 5.33517 30.6668Z" fill="#1E8A49"/>
<path d="M43.4997 25.3496L41.1932 20.7363C40.9666 20.2857 40.5052 20.0004 40.0012 20.0004H36.0013C35.6467 20.0004 35.308 20.1417 35.06 20.3897L30.1161 25.3336H9.33537C8.59939 25.3336 8.00204 25.9309 8.00204 26.6669C8.00204 27.3975 8.59139 27.9923 9.31662 28.0003C8.68464 28.0083 8.12728 28.4669 8.02066 29.1148C7.89804 29.8402 8.39128 30.5282 9.11663 30.6482C14.0019 31.4615 22.3189 33.4641 24.2282 35.4294L24.3136 35.5974C26.8335 40.5306 29.972 46.6665 36.0012 46.6665H54.6673C59.9871 46.6665 64.0004 43.7999 64.0004 40C64.0004 35.9626 54.9794 25.8243 43.4997 25.3496ZM54.6674 43.9998H36.0012C31.604 43.9998 28.9908 38.8906 26.6895 34.3841L26.5215 34.0587C26.4735 33.9681 26.4149 33.8801 26.3481 33.8001C23.4496 30.4188 10.9672 28.2536 9.55399 28.0189C9.48999 28.0055 9.42062 28.0003 9.35662 28.0003H30.668C31.0226 28.0003 31.3614 27.8589 31.6093 27.6109L36.5532 22.667H39.1771L41.4757 27.2643C41.7023 27.7149 42.1637 28.0003 42.6676 28.0003C53.6059 28.0003 61.3337 38.0053 61.3337 39.9999C61.3338 42.2051 58.3446 43.9998 54.6674 43.9998Z" fill="#1E8A49"/>
<path d="M61.3327 38.6638H50.6343C48.853 38.6638 47.3118 37.5173 46.7998 35.8133L43.9413 26.2802C43.7307 25.5762 42.9867 25.1762 42.2827 25.3869C41.5761 25.6002 41.1761 26.3442 41.3894 27.0482L44.2479 36.5813C45.1013 39.4238 47.6692 41.3331 50.6343 41.3331H61.3327C62.0686 41.3331 62.666 40.7332 62.666 39.9972C62.666 39.2612 62.0686 38.6638 61.3327 38.6638Z" fill="#1E8A49"/>
<path d="M7.90295 23.5683L5.2364 18.2351C4.91904 17.6031 4.16181 17.3285 3.51383 17.6084L0.804532 18.7764C0.169926 19.0484 -0.150065 19.763 0.0685541 20.4217L1.40189 24.4216C1.63926 25.1202 2.39649 25.4962 3.08984 25.2642C3.78845 25.0322 4.16718 24.2776 3.93244 23.5763L2.98584 20.739L3.41246 20.555L5.51902 24.7655C5.75364 25.2321 6.223 25.5015 6.71098 25.5015C6.91098 25.5015 7.1136 25.4535 7.30559 25.3601C7.96432 25.0295 8.23094 24.2295 7.90295 23.5683Z" fill="#1E8A49"/>
<path d="M7.26521 30.8054C6.60923 30.4828 5.80663 30.744 5.47589 31.4027L5.30789 31.7361C5.18527 31.1255 4.64654 30.6667 4.0013 30.6667C3.26533 30.6667 2.66797 31.2641 2.66797 32.0001V34.6666C2.66797 35.4026 3.26533 36 4.0013 36H5.33464C5.83863 36 6.29999 35.7146 6.52923 35.2614L7.86257 32.5948C8.19056 31.9361 7.92394 31.1361 7.26521 30.8054Z" fill="#1E8A49"/>
<path d="M38.6673 12.0006C37.9313 12.0006 37.334 12.598 37.334 13.3339V14.6673C37.334 15.4033 37.9313 16.0006 38.6673 16.0006C39.4033 16.0006 40.0007 15.4033 40.0007 14.6673V13.3339C40.0005 12.5978 39.4033 12.0006 38.6673 12.0006Z" fill="#1E8A49"/>
<path d="M62.6666 14.6671H38.6673C37.9313 14.6671 37.334 15.2645 37.334 16.0004C37.334 16.7364 37.9313 17.3338 38.6673 17.3338H62.6666C63.4026 17.3338 64 16.7364 64 16.0004C64 15.2645 63.4026 14.6671 62.6666 14.6671Z" fill="#1E8A49"/>
<path d="M38.6686 14.6671H14.6693C13.9333 14.6671 13.3359 15.2645 13.3359 16.0004C13.3359 16.7364 13.9333 17.3338 14.6693 17.3338H38.6686C39.4045 17.3338 40.0019 16.7364 40.0019 16.0004C40.0019 15.2645 39.4045 14.6671 38.6686 14.6671Z" fill="#1E8A49"/>
<path d="M44.0013 43.9996C43.2653 43.9996 42.668 44.597 42.668 45.333V50.6662C42.668 51.4022 43.2653 51.9995 44.0013 51.9995C44.7373 51.9995 45.3346 51.4022 45.3346 50.6662V45.333C45.3346 44.5969 44.7373 43.9996 44.0013 43.9996Z" fill="#1E8A49"/>
<path d="M54.6673 43.9996C53.9313 43.9996 53.334 44.597 53.334 45.333V50.6662C53.334 51.4022 53.9313 51.9995 54.6673 51.9995C55.4033 51.9995 56.0007 51.4022 56.0007 50.6662V45.333C56.0005 44.5969 55.4033 43.9996 54.6673 43.9996Z" fill="#1E8A49"/>
<path d="M63.317 46.8368C62.6744 46.4768 61.861 46.7062 61.501 47.3488C60.8691 48.4768 58.2931 49.1807 57.3332 49.3327H30.6673C29.9313 49.3327 29.334 49.9301 29.334 50.6661C29.334 51.402 29.9313 51.9994 30.6673 51.9994L57.5172 51.986C58.0105 51.9167 62.381 51.2367 63.829 48.6501C64.189 48.0075 63.9596 47.1968 63.317 46.8368Z" fill="#1E8A49"/>
</g>
<defs>
<clipPath id="clip0">
<rect width="64" height="64" fill="white"/>
</clipPath>
</defs>
</svg>
