<svg width="32" height="32" viewBox="0 0 32 32" fill="none" xmlns="http://www.w3.org/2000/svg">
<path d="M31.4 0H0.6C0.3 0 0 0.3 0 0.6V31.3C0 31.7 0.3 32 0.6 32H26.6C27 32 27.2 31.7 27.2 31.4C27.2 31 26.9 30.8 26.6 30.8H1.3V15.8V14.5V1.3H18.7H20H30.7V21.3V22.6V30.8H26.2C25.8 30.8 25.6 31.1 25.6 31.4C25.6 31.8 25.9 32 26.2 32H31.4C31.8 32 32 31.7 32 31.4V0.6C32 0.3 31.7 0 31.4 0Z" fill="#1E8A49"/>
<path d="M16 16.7L24 8.69995V10.2C24 10.5 24.3 10.8 24.6 10.8C24.8 10.8 24.9 10.7 25 10.6C25.1 10.5 25.2 10.4 25.2 10.2V7.29995C25.2 6.99995 24.9 6.69995 24.6 6.69995H21.7C21.4 6.69995 21.1 6.99995 21.1 7.29995C21.1 7.59995 21.4 7.89995 21.7 7.89995H23.2L15.2 15.9C15 16.1 15 16.5 15.2 16.7C15.4 16.9 15.8 17 16 16.7Z" fill="#1E8A49"/>
<path d="M15.3 15.8L7.29998 23.8V22.3C7.29998 21.9999 6.99998 21.7 6.69998 21.7C6.49998 21.7 6.39998 21.8 6.29998 21.9C6.19998 22 6.09998 22.1 6.09998 22.3V25.2C6.09998 25.5 6.39998 25.8 6.69998 25.8H9.59998C9.89998 25.8 10.2 25.5 10.2 25.2C10.2 24.9 9.89998 24.6 9.59998 24.6H8.09998L16.1 16.6C16.3 16.4 16.3 16 16.1 15.8C15.9 15.5 15.5 15.5 15.3 15.8Z" fill="#1E8A49"/>
</svg>
