<svg width="64" height="64" viewBox="0 0 64 64" fill="none" xmlns="http://www.w3.org/2000/svg">
<g clip-path="url(#clip0)">
<path d="M45.828 17.088C45.6974 14.9814 43.9454 13.3334 41.836 13.3334H22.1614C20.0548 13.3334 18.3 14.9814 18.1694 17.088L17.332 30.6666C17.332 34.3786 28.5587 34.6666 31.9987 34.6666C35.4387 34.6666 46.6653 34.3786 46.6627 30.5866L45.828 17.088ZM31.9987 32C25.164 32 20.988 30.984 20.02 30.368L20.8307 17.2506C20.8733 16.5492 21.4573 16 22.1613 16H41.8359C42.5399 16 43.1239 16.5494 43.1665 17.2534L43.9799 30.368C43.0147 30.9814 38.8387 32 31.9987 32Z" fill="#1E8A49"/>
<path d="M20 40C17.7946 40 16 41.7946 16 44C16 46.2054 17.7946 48 20 48C22.2054 48 24 46.2054 24 44C24 41.7946 22.2054 40 20 40ZM20 45.3334C19.264 45.3334 18.6666 44.736 18.6666 44C18.6666 43.264 19.264 42.6666 20 42.6666C20.736 42.6666 21.3334 43.264 21.3334 44C21.3334 44.736 20.736 45.3334 20 45.3334Z" fill="#1E8A49"/>
<path d="M44 40C41.7946 40 40 41.7946 40 44C40 46.2054 41.7946 48 44 48C46.2054 48 48 46.2054 48 44C48 41.7946 46.2054 40 44 40ZM44 45.3334C43.264 45.3334 42.6666 44.736 42.6666 44C42.6666 43.264 43.264 42.6666 44 42.6666C44.736 42.6666 45.3334 43.264 45.3334 44C45.3334 44.736 44.736 45.3334 44 45.3334Z" fill="#1E8A49"/>
<path d="M35.9974 42.6666H27.9974C27.2614 42.6666 26.6641 43.264 26.6641 44C26.6641 44.736 27.2614 45.3334 27.9974 45.3334H35.9974C36.7334 45.3334 37.3308 44.736 37.3308 44C37.3308 43.264 36.7334 42.6666 35.9974 42.6666Z" fill="#1E8A49"/>
<path d="M44.9884 3.104C44.7004 2.78663 41.887 0 31.999 0C22.111 0 19.2978 2.78663 19.0124 3.104C18.5298 3.63738 18.5698 4.44262 19.0898 4.944C19.6072 5.44537 20.4472 5.42938 20.9592 4.92537C20.9832 4.90137 23.3725 2.66675 31.9992 2.66675C40.6125 2.66675 43.0072 4.89612 43.0098 4.89612C43.2738 5.18675 43.6364 5.3335 43.9992 5.3335C44.3192 5.3335 44.6392 5.21887 44.8952 4.9895C45.4418 4.49337 45.4844 3.65063 44.9884 3.104Z" fill="#1E8A49"/>
<path d="M36.6834 1.52262C36.0514 1.14125 35.2354 1.34662 34.854 1.97862L31.998 6.74125L29.1394 1.97862C28.7608 1.34925 27.942 1.14125 27.3101 1.52262C26.6807 1.90125 26.4754 2.72 26.8541 3.352L30.854 10.0186C31.0967 10.4212 31.5287 10.6666 31.998 10.6666C32.4674 10.6666 32.8994 10.4212 33.1394 10.0186L37.1394 3.352C37.518 2.72 37.3154 1.90137 36.6834 1.52262Z" fill="#1E8A49"/>
<path d="M50.9966 14.224C50.7646 10.7334 47.842 8 44.3433 8H19.6553C16.1566 8 13.2339 10.7334 13.0019 14.224L10.666 49.3334C10.666 53.2614 21.9086 56 31.9994 56C42.0901 56 53.3328 53.2614 53.33 49.2454L50.9966 14.224ZM31.9993 53.3334C21.1539 53.3334 13.8873 50.3894 13.3299 49.4214L15.666 14.4C15.8046 12.3066 17.5566 10.6666 19.6554 10.6666H44.3434C46.442 10.6666 48.194 12.3066 48.3328 14.4L50.6901 49.1866C50.1113 50.3894 42.8446 53.3334 31.9993 53.3334Z" fill="#1E8A49"/>
<path d="M18.2019 52.3199C17.6445 51.8399 16.8019 51.9039 16.3219 52.4639L8.32189 61.7973C7.84189 62.3573 7.90589 63.1973 8.46589 63.6773C8.71652 63.8933 9.02589 63.9999 9.33252 63.9999C9.70852 63.9999 10.0819 63.8426 10.3459 63.5333L18.3459 54.1999C18.8259 53.6399 18.7619 52.7999 18.2019 52.3199Z" fill="#1E8A49"/>
<path d="M55.6779 61.7973L47.6779 52.4639C47.1979 51.9039 46.3579 51.8399 45.7979 52.3199C45.2379 52.7999 45.1739 53.6426 45.6539 54.1999L53.6539 63.5333C53.9153 63.8427 54.2886 63.9999 54.6646 63.9999C54.9712 63.9999 55.2806 63.8933 55.5339 63.6773C56.0939 63.1973 56.1579 62.3546 55.6779 61.7973Z" fill="#1E8A49"/>
<path d="M51.9974 58.6666H11.9974C11.2614 58.6666 10.6641 59.264 10.6641 60C10.6641 60.736 11.2614 61.3334 11.9974 61.3334H51.9974C52.7334 61.3334 53.3308 60.736 53.3308 60C53.3308 59.264 52.7334 58.6666 51.9974 58.6666Z" fill="#1E8A49"/>
<path d="M46.6667 53.3334H17.3334C16.5974 53.3334 16 53.9308 16 54.6668C16 55.4028 16.5974 56.0001 17.3334 56.0001H46.6667C47.4028 56.0001 48.0001 55.4028 48.0001 54.6668C48 53.9306 47.4028 53.3334 46.6667 53.3334Z" fill="#1E8A49"/>
</g>
<defs>
<clipPath id="clip0">
<rect width="64" height="64" fill="white"/>
</clipPath>
</defs>
</svg>
