<svg width="41" height="32" viewBox="0 0 41 32" fill="none" xmlns="http://www.w3.org/2000/svg">
<path d="M39.6343 5.57235H34.034C33.8955 4.05114 33.1939 2.63649 32.0666 1.60568C30.9394 0.574877 29.4678 0.0022371 27.9402 0H12.2435C10.7159 0.00216577 9.2443 0.574781 8.11702 1.6056C6.98974 2.63642 6.28812 4.05111 6.14968 5.57235H0.549387C0.40368 5.57235 0.263942 5.63023 0.160912 5.73326C0.0578816 5.83629 0 5.97603 0 6.12174L0 10.331C0 10.4767 0.0578816 10.6164 0.160912 10.7195C0.263942 10.8225 0.40368 10.8804 0.549387 10.8804H6.12174V31.4506C6.12174 31.5963 6.17962 31.7361 6.28265 31.8391C6.38568 31.9421 6.52542 32 6.67113 32H27.9402C28.086 32 28.2257 31.9421 28.3287 31.8391C28.4317 31.7361 28.4896 31.5963 28.4896 31.4506V28.7684H33.5126C33.6583 28.7684 33.798 28.7105 33.9011 28.6075C34.0041 28.5045 34.062 28.3647 34.062 28.219V10.8804H39.6343C39.78 10.8804 39.9198 10.8225 40.0228 10.7195C40.1258 10.6164 40.1837 10.4767 40.1837 10.331V6.12174C40.1837 5.97603 40.1258 5.83629 40.0228 5.73326C39.9198 5.63023 39.78 5.57235 39.6343 5.57235ZM12.2435 1.09877H27.9402C29.272 1.10027 30.5487 1.62995 31.4904 2.57162C32.432 3.51328 32.9617 4.79002 32.9632 6.12174V18.881C32.4089 18.9774 31.8884 19.2137 31.451 19.5676C31.0554 19.9057 30.5522 20.0915 30.0318 20.0915C29.5115 20.0915 29.0082 19.9057 28.6127 19.5676C28.03 19.0942 27.302 18.8358 26.5512 18.8358C25.8004 18.8358 25.0725 19.0942 24.4898 19.5676C24.0947 19.9057 23.5918 20.0915 23.0717 20.0915C22.5517 20.0915 22.0488 19.9057 21.6537 19.5676C21.0711 19.0942 20.3432 18.8358 19.5925 18.8358C18.8419 18.8358 18.114 19.0942 17.5314 19.5676C17.1365 19.9057 16.6338 20.0915 16.114 20.0915C15.5941 20.0915 15.0914 19.9057 14.6966 19.5676C14.2594 19.2139 13.7392 18.9776 13.1853 18.881V8.63322C13.1844 7.82171 12.8616 7.0437 12.2878 6.46987C11.7139 5.89604 10.9359 5.57327 10.1244 5.57235H7.25191C7.38871 4.34356 7.97328 3.2082 8.894 2.38303C9.81472 1.55785 11.0071 1.10067 12.2435 1.09877ZM32.9632 21.7651C32.4082 21.8618 31.8874 22.0996 31.451 22.4558C31.0554 22.7939 30.5522 22.9797 30.0318 22.9797C29.5115 22.9797 29.0082 22.7939 28.6127 22.4558C28.03 21.9824 27.302 21.724 26.5512 21.724C25.8004 21.724 25.0725 21.9824 24.4898 22.4558C24.0947 22.7939 23.5918 22.9797 23.0717 22.9797C22.5517 22.9797 22.0488 22.7939 21.6537 22.4558C21.0711 21.9824 20.3432 21.724 19.5925 21.724C18.8419 21.724 18.114 21.9824 17.5314 22.4558C17.1365 22.7939 16.6338 22.9797 16.114 22.9797C15.5941 22.9797 15.0914 22.7939 14.6966 22.4558C14.2604 22.0998 13.7399 21.8619 13.1853 21.7651V19.9958C13.5029 20.0894 13.7982 20.2467 14.053 20.4582C14.6354 20.9316 15.3631 21.1901 16.1137 21.1901C16.8642 21.1901 17.5919 20.9316 18.1743 20.4582C18.5694 20.1201 19.0724 19.9343 19.5924 19.9343C20.1124 19.9343 20.6153 20.1201 21.0104 20.4582C21.5931 20.9316 22.321 21.19 23.0717 21.19C23.8225 21.19 24.5504 20.9316 25.133 20.4582C25.5282 20.1201 26.0312 19.9343 26.5512 19.9343C27.0713 19.9343 27.5743 20.1201 27.9694 20.4582C28.5525 20.9316 29.2806 21.1901 30.0317 21.1901C30.7827 21.1901 31.5109 20.9316 32.0939 20.4582C32.3493 20.2466 32.6451 20.0892 32.9632 19.9955V21.7651ZM1.09877 6.67113H10.1244C10.6446 6.67171 11.1433 6.87861 11.5112 7.24645C11.879 7.61429 12.0859 8.11302 12.0865 8.63322V9.7816H1.09877V6.67113ZM27.3909 30.9012H7.22051V10.8804H12.0865V28.219C12.0865 28.3647 12.1444 28.5045 12.2474 28.6075C12.3505 28.7105 12.4902 28.7684 12.6359 28.7684H27.3909V30.9012ZM27.9402 27.6696H13.1853V22.8871C13.5026 22.9802 13.7977 23.1366 14.053 23.3467C14.6354 23.8201 15.3631 24.0786 16.1137 24.0786C16.8642 24.0786 17.5919 23.8201 18.1743 23.3467C18.5694 23.0086 19.0724 22.8228 19.5924 22.8228C20.1124 22.8228 20.6153 23.0086 21.0104 23.3467C21.5931 23.8201 22.321 24.0785 23.0717 24.0785C23.8225 24.0785 24.5504 23.8201 25.133 23.3467C25.5282 23.0086 26.0312 22.8229 26.5512 22.8229C27.0713 22.8229 27.5743 23.0086 27.9694 23.3467C28.5525 23.8202 29.2806 24.0786 30.0317 24.0786C30.7827 24.0786 31.5109 23.8202 32.0939 23.3467C32.3497 23.1363 32.6454 22.9798 32.9632 22.8868V27.6696H27.9402ZM39.0849 9.78191H34.062V6.67113H39.0849V9.78191Z" fill="#1E8A49"/>
</svg>
